<svg width="20" height="19" viewBox="0 0 20 19" fill="none" xmlns="http://www.w3.org/2000/svg">
<path d="M1.85303 3.06172C1.85303 2.05261 2.66945 1.23456 3.67656 1.23456H6.66646C7.05891 1.23456 7.40733 1.48619 7.53143 1.85924L8.89709 5.96436C9.04057 6.39567 8.8457 6.86706 8.43986 7.07039L6.38177 8.10148C7.38676 10.3349 9.18251 12.1343 11.4115 13.1412L12.4406 11.0791C12.6435 10.6724 13.1139 10.4772 13.5444 10.6209L17.6414 11.9893C18.0137 12.1136 18.2648 12.4628 18.2648 12.856V15.8518C18.2648 16.861 17.4484 17.679 16.4413 17.679H15.5295C7.9762 17.679 1.85303 11.5436 1.85303 3.9753V3.06172Z" stroke="#111827" stroke-width="2" stroke-linecap="round" stroke-linejoin="round"/>
</svg>
