<svg width="20" height="19" viewBox="0 0 20 19" fill="none" xmlns="http://www.w3.org/2000/svg">
<path d="M7.12352 10.6827C7.30795 10.3139 7.41175 9.89746 7.41175 9.45678C7.41175 9.0161 7.30795 8.59971 7.12352 8.23082M7.12352 10.6827C6.67444 11.5809 5.74731 12.1975 4.67646 12.1975C3.1658 12.1975 1.94116 10.9704 1.94116 9.45678C1.94116 7.94311 3.1658 6.71604 4.67646 6.71604C5.74731 6.71604 6.67444 7.33263 7.12352 8.23082M7.12352 10.6827L13.1706 13.7123M7.12352 8.23082L13.1706 5.20126M13.1706 5.20126C13.6197 6.09945 14.5468 6.71604 15.6176 6.71604C17.1283 6.71604 18.3529 5.48897 18.3529 3.9753C18.3529 2.46163 17.1283 1.23456 15.6176 1.23456C14.107 1.23456 12.8823 2.46163 12.8823 3.9753C12.8823 4.41598 12.9861 4.83237 13.1706 5.20126ZM13.1706 13.7123C12.9861 14.0812 12.8823 14.4976 12.8823 14.9383C12.8823 16.4519 14.107 17.679 15.6176 17.679C17.1283 17.679 18.3529 16.4519 18.3529 14.9383C18.3529 13.4246 17.1283 12.1975 15.6176 12.1975C14.5468 12.1975 13.6197 12.8141 13.1706 13.7123Z" stroke="#111827" stroke-width="2" stroke-linecap="round" stroke-linejoin="round"/>
</svg>
